<?xml version="1.0" encoding="iso-8859-1"?>
<!-- Generator: Adobe Illustrator 19.0.0, SVG Export Plug-In . SVG Version: 6.00 Build 0)  -->
<svg version="1.1" id="Layer_1" xmlns="http://www.w3.org/2000/svg" xmlns:xlink="http://www.w3.org/1999/xlink" x="0px" y="0px"
	 viewBox="0 0 482.579 482.579" style="enable-background:new 0 0 482.579 482.579;" xml:space="preserve">
<g>
	
		<rect x="34.878" y="212.062" transform="matrix(0.7071 -0.7071 0.7071 0.7071 -138.9612 139.9766)" style="fill:#FFCD00;" width="129.214" height="51.333"/>
	<rect x="322.388" y="0.001" style="fill:#FFDA44;" width="40" height="86.066"/>
	<rect x="396.514" y="120.196" style="fill:#FFCD00;" width="86.065" height="40"/>
	
		<rect x="389.765" y="29.786" transform="matrix(0.7071 0.7071 -0.7071 0.7071 171.5138 -268.4232)" style="fill:#FFDA44;" width="39.999" height="86.066"/>
	<polygon style="fill:#7ED63E;" points="307.48,175.098 390.73,258.348 437.3,211.788 354.05,128.528 	"/>
	<polygon style="fill:#5EAC24;" points="54.54,428.048 109.07,482.578 288.65,302.998 346.08,302.998 390.73,258.348 
		307.48,175.098 	"/>
	
		<rect x="230.273" y="77.258" transform="matrix(0.7071 0.7071 -0.7071 0.7071 162.602 -172.1795)" style="fill:#A4E276;" width="117.733" height="65.86"/>
	<polygon style="fill:#7ED63E;" points="224.23,91.848 179.58,136.498 179.58,193.938 163.322,210.196 71.95,301.562 0,373.508 
		54.54,428.048 307.48,175.098 	"/>
</g>
<g>
</g>
<g>
</g>
<g>
</g>
<g>
</g>
<g>
</g>
<g>
</g>
<g>
</g>
<g>
</g>
<g>
</g>
<g>
</g>
<g>
</g>
<g>
</g>
<g>
</g>
<g>
</g>
<g>
</g>
</svg>
