<?xml version="1.0" encoding="utf-8"?>
<svg version="1.1" id="Layer_1" x="0px" y="0px" viewBox="0 0 496 496" xmlns="http://www.w3.org/2000/svg" xmlns:bx="https://boxy-svg.com">
  <defs>
    <radialGradient gradientUnits="userSpaceOnUse" cx="248" cy="248" r="244" id="gradient-1">
      <stop offset="0" style="stop-color: rgba(197, 207, 250, 0.97)"/>
      <stop offset="1" style="stop-color: rgba(103, 128, 242, 0.97)"/>
    </radialGradient>
  </defs>
  <g>
    <path d="M 460.76 304 C 477.984 304 492 289.984 492 272.76 L 492 261.352 C 492 240.76 475.24 224 454.648 224 C 452.384 224 450.128 224.2 447.968 224.608 L 404 232.6 L 404 152 C 404 68.184 335.816 0 252 0 C 168.184 0 100 68.184 100 152 L 100 234.056 L 48.064 224.608 C 45.872 224.2 4 240.76 4 261.352 L 4 272.76 C 4 289.984 18.016 304 35.24 304 C 48.072 304 59.48 296.208 64.224 284.432 L 92.336 303.176 C 82.008 340.112 62.88 359.52 47.368 375.184 C 32.68 390.008 20 402.824 20 424 C 20 448.784 43.296 464 60 464 C 73.048 464 79.536 459.768 85.264 456.024 C 91.592 451.896 97.568 448 116 448 C 144.68 448 158.752 457.968 175.04 469.504 C 192.568 481.92 212.432 496 252 496 C 291.568 496 311.432 481.92 328.96 469.504 C 345.248 457.968 359.32 448 388 448 C 406.432 448 412.408 451.896 418.736 456.024 C 424.464 459.768 430.952 464 444 464 C 460.704 464 484 448.784 484 424 C 484 402.824 471.32 390.008 456.632 375.176 C 440.44 358.816 420.472 338.56 410.472 298.624 L 431.776 284.424 C 436.512 296.208 447.928 304 460.76 304 Z" style="fill-rule: nonzero; stroke-width: 0px; fill: url(#gradient-1); paint-order: fill;" bx:origin="0.5 0.51"/>
    <path d="M188,152c17.648,0,32-14.352,32-32s-14.352-32-32-32s-32,14.352-32,32S170.352,152,188,152z M188,104 c8.824,0,16,7.176,16,16s-7.176,16-16,16c-8.824,0-16-7.176-16-16C172,111.176,179.176,104,188,104z" style="paint-order: stroke; fill-rule: nonzero; fill: rgb(197, 250, 199);"/>
    <path d="M316,152c17.648,0,32-14.352,32-32s-14.352-32-32-32s-32,14.352-32,32S298.352,152,316,152z M316,104 c8.824,0,16,7.176,16,16s-7.176,16-16,16c-8.824,0-16-7.176-16-16C300,111.176,307.176,104,316,104z" style="fill: rgb(197, 250, 199);"/>
    <path d="M316,176c-9.888,0-15.256,2.688-19.576,4.84C292.76,182.68,290.112,184,284,184s-8.76-1.32-12.424-3.16 c-4.32-2.152-9.688-4.84-19.576-4.84s-15.256,2.688-19.576,4.84C228.76,182.68,226.112,184,220,184s-8.76-1.32-12.424-3.16 c-4.32-2.152-9.688-4.84-19.576-4.84c-19.872,0-40,10.992-40,32s20.128,32,40,32c9.888,0,15.256-2.688,19.576-4.84 c3.664-1.84,6.312-3.16,12.424-3.16s8.76,1.32,12.424,3.16c4.32,2.152,9.688,4.84,19.576,4.84s15.256-2.688,19.576-4.84 c3.664-1.84,6.312-3.16,12.424-3.16s8.76,1.32,12.424,3.16c4.32,2.152,9.688,4.84,19.576,4.84c19.872,0,40-10.992,40-32 S335.872,176,316,176z M316,224c-6.112,0-8.76-1.32-12.424-3.16c-4.32-2.152-9.688-4.84-19.576-4.84s-15.256,2.688-19.576,4.84 C260.76,222.68,258.112,224,252,224s-8.76-1.32-12.424-3.16c-4.32-2.152-9.688-4.84-19.576-4.84s-15.256,2.688-19.576,4.84 C196.76,222.68,194.112,224,188,224c-8.304,0-24-3.344-24-16s15.696-16,24-16c6.112,0,8.76,1.32,12.424,3.16 c4.32,2.152,9.688,4.84,19.576,4.84s15.256-2.688,19.576-4.84c3.664-1.84,6.312-3.16,12.424-3.16s8.76,1.32,12.424,3.16 c4.32,2.152,9.688,4.84,19.576,4.84s15.256-2.688,19.576-4.84c3.664-1.84,6.312-3.16,12.424-3.16c8.304,0,24,3.344,24,16 S324.304,224,316,224z" style="fill: rgb(197, 250, 199);"/>
    <path d="M252,448c-34.832,0-48.808-19.656-49.344-20.44l-13.312,8.872C190.096,437.56,208.216,464,252,464 s61.904-26.44,62.656-27.56l-13.312-8.872C301.208,427.768,287.312,448,252,448z" style="fill: rgb(197, 250, 199);"/>
  </g>
</svg>